<svg id="Layer_1" data-name="Layer 1" xmlns="http://www.w3.org/2000/svg" viewBox="0 0 290 58"><defs><style>.cls-1{fill:#231f20;}</style></defs><title>logo_5</title><path id="_Compound_Path_" data-name=" Compound Path " class="cls-1" d="M0,6.38v-3H17.73v3ZM8.83,19.84c-4.11,0-7.26-2.77-7.26-6.36S4.71,7.12,8.83,7.12s7.26,2.77,7.26,6.36S12.95,19.84,8.83,19.84ZM7.28-.33h3.11V3.34H7.28ZM8.83,10a3.71,3.71,0,0,0-3.92,3.47,4,4,0,0,0,7.84,0A3.71,3.71,0,0,0,8.83,10ZM25,31.44H5.4V22.67H9.15V28.3H25Zm3.78-17.13H23.93V24.48H20.24V.76h3.69V11.17h4.81Z"/><path id="_Compound_Path_2" data-name=" Compound Path 2" class="cls-1" d="M33.19,20.49h8.19V15.74H29.65V12.67H48a37.49,37.49,0,0,0,1.1-7.73H33.19V1.81H52.92a48,48,0,0,1-1.13,10.85h5.73v3.08H45.1v4.74H53v11H49.31V23.63H33.19Z"/><path id="_Compound_Path_3" data-name=" Compound Path 3" class="cls-1" d="M59.26,2.19H73.94V5.33h-11V8.2H73.42v3.07H62.94v3c1.91,0,4.3-.07,6.76-.2a61.44,61.44,0,0,0,7-.85l.38,3c-2.53.44-5.36.75-8.5,1a90.79,90.79,0,0,1-9.32.2Zm4.29,29.25V19.51h19V31.44Zm15.37-8.82H67.24v5.72H78.92Zm8.46-11.68H82.57v7.88H78.88V.82h3.69v7h4.81Z"/><path id="_Compound_Path_4" data-name=" Compound Path 4" class="cls-1" d="M102.86,23a19.38,19.38,0,0,1-7.13-8.19,18.69,18.69,0,0,1-7.3,8.64L86,20.76a16,16,0,0,0,5.39-5.29,15.22,15.22,0,0,0,2.32-8.09v-5H97.5V7.26A14.28,14.28,0,0,0,99.75,15a15.75,15.75,0,0,0,5.36,5.15ZM111.29.76v9.66h5.05v3.14h-5.05V30.62H107.6V.76Z"/><path id="_Compound_Path_5" data-name=" Compound Path 5" class="cls-1" d="M134,5.94h-6.14v2a13.78,13.78,0,0,0,2,7.65A15.43,15.43,0,0,0,135,20.52l-2.32,2.8c-3-2-5.67-4.85-6.76-7.85A17.45,17.45,0,0,1,119,23.73l-2.32-2.59a15.5,15.5,0,0,0,5.15-5,15.38,15.38,0,0,0,2.08-8V5.94h-6.28V2.84H134ZM142.67.72v29.9H139V13.15h-6.72V9.94H139V.76Z"/><path id="_Compound_Path_6" data-name=" Compound Path 6" class="cls-1" d="M163.64,14.24a78.81,78.81,0,0,1-16.83,1.13V1.88h3.69V12.12c2.12,0,4.3,0,6.59-.2a52.74,52.74,0,0,0,6.11-.85Zm-11.33,17.2v-8.5h14.37V20.62H152.31v-3h18.06v8.32H156V28.4h15.15v3ZM166.68.76h3.69v16h-3.69V9.39h-9.25V6.25h9.25Z"/><path id="_Compound_Path_7" data-name=" Compound Path 7" class="cls-1" d="M178.91,19.43a63,63,0,0,0,7.51-.38c2.46-.27,4.81-.61,6.69-1l.44,3.14a90.62,90.62,0,0,1-18.33,1.43V10.94H185V5.64h-9.76V2.5h13.35V14h-9.66ZM195.64.76h3.69V30.62h-3.69Z"/><path id="_Compound_Path_8" data-name=" Compound Path 8" class="cls-1" d="M201.12,18.71V15.64h28.67v3.07Zm4.58-5L204,10.94a20,20,0,0,0,6.79-2.53c1.74-1.09,2.63-2.29,2.76-3.58h-8.09V1.58H225.6V4.79h-8c.14,1.3,1.06,2.49,2.76,3.55a20.36,20.36,0,0,0,6.83,2.6l-1.71,2.83c-4.54-.92-8-2.8-9.9-5.09-1.9,2.26-5.52,4.13-9.89,5Zm.2,17.71V21.1H225V31.44Zm15.43-7.24H209.58v4.13h11.74Z"/><path id="_Compound_Path_9" data-name=" Compound Path 9" class="cls-1" d="M244.52,18.88a15.94,15.94,0,0,1-5.46-5.9,17.82,17.82,0,0,1-5.84,6.52L230.66,17a16.37,16.37,0,0,0,4.54-4.4,11,11,0,0,0,2-6.66V2.49h3.72V5.84a10.77,10.77,0,0,0,1.91,6.42,16.13,16.13,0,0,0,4.23,4Zm13.9,12.56H238.79V21.3h3.76v7h15.87ZM252,22.77h-3.55V11.27h-4.16V8.09h4.16V1.37H252Zm6.18.51h-3.55V.86h3.55Z"/><path id="_Compound_Path_10" data-name=" Compound Path 10" class="cls-1" d="M262.18,2.94h14V6.08H265.87v4.86h9v3.14h-9v5.46a72.75,72.75,0,0,0,13.52-1.26l.44,3.11a84.21,84.21,0,0,1-17.65,1.3ZM286.69.86V30.72H283V13.66h-6.59V10.52H283V.86Z"/><path class="cls-1" d="M4.14,40.64H5.55v5.3h0c.29-.42.58-.81.86-1.17l3.34-4.1H11.5l-4,4.63,4.26,6.28H10.18L6.59,46.22l-1,1.2v4.16H4.14Z"/><path class="cls-1" d="M20.17,47.57a3.83,3.83,0,0,1-3.48,4.15h-.42A3.73,3.73,0,0,1,12.5,48q0-.16,0-.31A3.83,3.83,0,0,1,16,43.58h.41a3.71,3.71,0,0,1,3.78,3.64Q20.18,47.39,20.17,47.57Zm-6.22.08c0,1.72,1,3,2.38,3s2.38-1.28,2.38-3c0-1.33-.66-3-2.35-3S13.95,46.16,13.95,47.65Z"/><path class="cls-1" d="M22.17,46.16c0-.92,0-1.72-.06-2.45h1.25v1.54h.06a2.35,2.35,0,0,1,2.17-1.72,1.58,1.58,0,0,1,.41,0v1.41a2.19,2.19,0,0,0-.49,0,2,2,0,0,0-1.91,1.83,4.08,4.08,0,0,0-.06.66v4.18H22.17Z"/><path class="cls-1" d="M28.31,47.94a2.51,2.51,0,0,0,2.33,2.68H31a5.16,5.16,0,0,0,2.17-.41l.24,1a6.36,6.36,0,0,1-2.61.49,3.64,3.64,0,0,1-3.85-4c0-2.36,1.39-4.23,3.68-4.23,2.56,0,3.24,2.25,3.24,3.69a5.19,5.19,0,0,1,0,.66Zm4.18-1a2,2,0,0,0-2-2.32,2.36,2.36,0,0,0-2.19,2.32Z"/><path class="cls-1" d="M40.18,51.56l-.11-1h0a2.92,2.92,0,0,1-2.4,1.17,2.23,2.23,0,0,1-2.39-2.05q0-.1,0-.2c0-1.9,1.68-2.93,4.71-2.91v-.16A1.62,1.62,0,0,0,38.2,44.6a3.9,3.9,0,0,0-2,.58l-.32-.94a4.86,4.86,0,0,1,2.58-.7c2.4,0,3,1.64,3,3.21v2.93a11,11,0,0,0,.13,1.88Zm-.21-4c-1.55,0-3.32.24-3.32,1.77a1.26,1.26,0,0,0,1.16,1.35H38a2,2,0,0,0,1.9-1.31,1.49,1.49,0,0,0,.1-.43Z"/><path class="cls-1" d="M55.18,51.2a7,7,0,0,1-2.88.52c-3.08,0-5.39-1.94-5.39-5.52a5.43,5.43,0,0,1,5.7-5.73A5.86,5.86,0,0,1,55.2,41l-.34,1.15a5.12,5.12,0,0,0-2.2-.45c-2.56,0-4.26,1.63-4.26,4.5,0,2.67,1.54,4.39,4.19,4.39a5.64,5.64,0,0,0,2.3-.45Z"/><path class="cls-1" d="M57.72,47.94a2.51,2.51,0,0,0,2.69,2.72,5.16,5.16,0,0,0,2.17-.41l.24,1a6.36,6.36,0,0,1-2.61.49,3.64,3.64,0,0,1-3.85-4c0-2.36,1.39-4.23,3.68-4.23,2.56,0,3.24,2.25,3.24,3.69a5.19,5.19,0,0,1,0,.66Zm4.18-1a2,2,0,0,0-2-2.32,2.36,2.36,0,0,0-2.19,2.32Z"/><path class="cls-1" d="M65.25,45.84c0-.81,0-1.47-.06-2.12h1.26l.08,1.3h0a2.88,2.88,0,0,1,2.59-1.47c1.09,0,2.77.65,2.77,3.34v4.68H70.46V47c0-1.26-.47-2.32-1.81-2.32a2,2,0,0,0-1.91,1.46,2.06,2.06,0,0,0-.1.66v4.71H65.22Z"/><path class="cls-1" d="M76.1,41.47v2.25h2v1.09h-2V49c0,1,.27,1.52,1.07,1.52a3.15,3.15,0,0,0,.82-.1l.07,1.07a3.47,3.47,0,0,1-1.26.19,2,2,0,0,1-1.54-.6,2.91,2.91,0,0,1-.55-2V44.8H73.5V43.72h1.21V41.84Z"/><path class="cls-1" d="M80.65,47.94a2.51,2.51,0,0,0,2.69,2.72,5.16,5.16,0,0,0,2.17-.41l.24,1a6.36,6.36,0,0,1-2.61.49,3.64,3.64,0,0,1-3.85-4c0-2.36,1.39-4.23,3.68-4.23,2.56,0,3.24,2.25,3.24,3.69a5.19,5.19,0,0,1,0,.66Zm4.18-1a2,2,0,0,0-2-2.32,2.36,2.36,0,0,0-2.19,2.32Z"/><path class="cls-1" d="M88.18,46.16c0-.92,0-1.72-.06-2.45h1.25v1.54h.06a2.35,2.35,0,0,1,2.17-1.72,1.56,1.56,0,0,1,.4,0v1.41a2.17,2.17,0,0,0-.49,0,2,2,0,0,0-1.91,1.83,4.08,4.08,0,0,0-.06.66v4.18H88.13Z"/><path class="cls-1" d="M97.47,51.56V44.8h-1.1V43.72h1.1v-.37a3.69,3.69,0,0,1,.91-2.74,2.73,2.73,0,0,1,1.91-.73,3.3,3.3,0,0,1,1.21.23l-.19,1.1a2.13,2.13,0,0,0-.91-.18c-1.21,0-1.52,1.07-1.52,2.27v.42h1.89v1.09H98.88v6.75Z"/><path class="cls-1" d="M109.15,47.57a3.83,3.83,0,0,1-3.48,4.15h-.42A3.73,3.73,0,0,1,101.48,48q0-.16,0-.31A3.83,3.83,0,0,1,105,43.58h.41a3.71,3.71,0,0,1,3.78,3.64Q109.16,47.39,109.15,47.57Zm-6.22.08c0,1.72,1,3,2.38,3s2.38-1.28,2.38-3c0-1.33-.66-3-2.35-3S102.93,46.16,102.93,47.65Z"/><path class="cls-1" d="M111.15,46.16c0-.92,0-1.72-.06-2.45h1.25v1.54h.06a2.35,2.35,0,0,1,2.17-1.72,1.56,1.56,0,0,1,.4,0v1.41a2.17,2.17,0,0,0-.49,0,2,2,0,0,0-1.91,1.83,4.08,4.08,0,0,0-.06.66v4.18H111.1Z"/><path class="cls-1" d="M121.76,40.64V51.56h-1.41V40.64Z"/><path class="cls-1" d="M124.55,45.84c0-.81,0-1.47-.06-2.12h1.26l.08,1.3h0a2.88,2.88,0,0,1,2.59-1.47c1.09,0,2.77.65,2.77,3.34v4.68h-1.43V47c0-1.26-.47-2.32-1.81-2.32A2,2,0,0,0,126,46.18a2.06,2.06,0,0,0-.1.66v4.71h-1.42Z"/><path class="cls-1" d="M134.08,43.72l1.54,4.4a20.17,20.17,0,0,1,.63,2h0c.18-.65.41-1.29.66-2l1.52-4.4H140l-3.08,7.84h-1.36l-3-7.84Z"/><path class="cls-1" d="M142.16,47.94a2.51,2.51,0,0,0,2.69,2.72,5.16,5.16,0,0,0,2.17-.41l.24,1a6.36,6.36,0,0,1-2.61.49,3.64,3.64,0,0,1-3.85-4c0-2.36,1.39-4.23,3.68-4.23,2.56,0,3.24,2.25,3.24,3.69a5.19,5.19,0,0,1,0,.66Zm4.18-1a2,2,0,0,0-2-2.32,2.36,2.36,0,0,0-2.19,2.32Z"/><path class="cls-1" d="M149.5,50.1a3.74,3.74,0,0,0,1.88.57c1,0,1.52-.52,1.52-1.17s-.41-1.05-1.46-1.44c-1.41-.5-2.07-1.28-2.07-2.22a2.42,2.42,0,0,1,2.52-2.31h.18A3.91,3.91,0,0,1,154,44l-.36,1a3,3,0,0,0-1.6-.45c-.84,0-1.31.49-1.31,1.07s.47.94,1.49,1.33c1.36.52,2.06,1.2,2.06,2.36,0,1.38-1.07,2.35-2.93,2.35a4.48,4.48,0,0,1-2.2-.53Z"/><path class="cls-1" d="M158,41.47v2.25h2v1.09h-2V49c0,1,.27,1.52,1.07,1.52a3.15,3.15,0,0,0,.82-.1l.07,1.07a3.47,3.47,0,0,1-1.26.19,2,2,0,0,1-1.54-.6,2.91,2.91,0,0,1-.55-2V44.8H155.4V43.72h1.21V41.84Z"/><path class="cls-1" d="M163.47,41.52a.89.89,0,0,1-1.77,0h0a.87.87,0,0,1,.85-.89h0a.85.85,0,0,1,.88.82S163.47,41.5,163.47,41.52Zm-1.59,10v-7.8h1.42v7.84Z"/><path class="cls-1" d="M172.64,43.72c0,.57-.06,1.2-.06,2.15v4.55c0,1.8-.36,2.9-1.12,3.58a4.15,4.15,0,0,1-2.85.94,5.06,5.06,0,0,1-2.61-.65l.36-1.09a4.42,4.42,0,0,0,2.3.62c1.46,0,2.53-.76,2.53-2.74v-.87h0a2.8,2.8,0,0,1-2.49,1.31c-1.94,0-3.34-1.65-3.34-3.82,0-2.66,1.73-4.16,3.53-4.16a2.61,2.61,0,0,1,2.4,1.4h0l.06-1.18Zm-1.47,3.09a2.09,2.09,0,0,0-2-2.15h0c-1.36,0-2.33,1.15-2.33,3,0,1.54.78,2.82,2.31,2.82a2.08,2.08,0,0,0,2-1.46,2.49,2.49,0,0,0,.11-.76Z"/><path class="cls-1" d="M179.49,51.56l-.11-1h0a2.92,2.92,0,0,1-2.4,1.17,2.23,2.23,0,0,1-2.39-2.05q0-.1,0-.2c0-1.9,1.68-2.93,4.71-2.91v-.16a1.62,1.62,0,0,0-1.78-1.81,3.9,3.9,0,0,0-2,.58l-.33-.94a4.88,4.88,0,0,1,2.58-.7c2.4,0,3,1.64,3,3.21v2.93a11,11,0,0,0,.13,1.88Zm-.21-4c-1.55,0-3.32.24-3.32,1.77a1.26,1.26,0,0,0,1.15,1.36h.2a2,2,0,0,0,1.89-1.31,1.49,1.49,0,0,0,.08-.45Z"/><path class="cls-1" d="M184.82,41.47v2.25h2v1.09h-2V49c0,1,.28,1.52,1.07,1.52a3.15,3.15,0,0,0,.82-.1l.07,1.07a3.46,3.46,0,0,1-1.26.19,2,2,0,0,1-1.54-.6,2.91,2.91,0,0,1-.55-2V44.8h-1.21V43.72h1.21V41.84Z"/><path class="cls-1" d="M190.26,41.52a.88.88,0,0,1-1.76,0,.87.87,0,0,1,.85-.89h0a.85.85,0,0,1,.87.83S190.26,41.5,190.26,41.52Zm-1.59,10v-7.8h1.43v7.84Z"/><path class="cls-1" d="M193.22,43.72l1.54,4.4a20.15,20.15,0,0,1,.63,2h0c.18-.65.41-1.29.66-2l1.52-4.4h1.49L196,51.56h-1.36l-3-7.84Z"/><path class="cls-1" d="M201.3,47.94a2.51,2.51,0,0,0,2.33,2.68H204a5.17,5.17,0,0,0,2.17-.41l.24,1a6.36,6.36,0,0,1-2.61.49,3.64,3.64,0,0,1-3.85-4c0-2.36,1.39-4.23,3.68-4.23,2.56,0,3.24,2.25,3.24,3.69a5.19,5.19,0,0,1,0,.66Zm4.18-1a2,2,0,0,0-2-2.32,2.36,2.36,0,0,0-2.18,2.32Z"/><path class="cls-1" d="M214.75,40.64h1.41v7.3c0,2.9-1.43,3.79-3.3,3.79a4.55,4.55,0,0,1-1.51-.26l.21-1.15a3.37,3.37,0,0,0,1.18.21c1.26,0,2-.57,2-2.7Z"/><path class="cls-1" d="M225.77,47.57a3.83,3.83,0,0,1-3.48,4.15h-.42A3.73,3.73,0,0,1,218.1,48q0-.16,0-.31a3.83,3.83,0,0,1,3.45-4.17l.44,0a3.71,3.71,0,0,1,3.77,4Zm-6.22.08c0,1.72,1,3,2.38,3s2.38-1.28,2.38-3c0-1.33-.66-3-2.35-3S219.55,46.16,219.55,47.65Z"/><path class="cls-1" d="M234.33,49.42c0,.81,0,1.52.06,2.14h-1.26L233,50.28h0a3,3,0,0,1-2.59,1.46c-1.23,0-2.71-.68-2.71-3.43V43.72h1.43v4.34c0,1.49.45,2.49,1.75,2.49a2.06,2.06,0,0,0,1.88-1.3,2.1,2.1,0,0,0,.13-.73v-4.8h1.43Z"/><path class="cls-1" d="M236.91,46.16c0-.92,0-1.72-.07-2.45h1.25v1.54h.06a2.36,2.36,0,0,1,2.17-1.72,1.59,1.59,0,0,1,.41,0v1.41a2.19,2.19,0,0,0-.49,0,2,2,0,0,0-1.91,1.83,3.82,3.82,0,0,0-.07.66v4.18h-1.41Z"/><path class="cls-1" d="M242.48,45.84a19.88,19.88,0,0,0-.07-2.12h1.26l.08,1.3h0a2.88,2.88,0,0,1,2.59-1.47c1.09,0,2.77.65,2.77,3.34v4.68h-1.42V47c0-1.26-.47-2.32-1.81-2.32a2.09,2.09,0,0,0-2,2.12v4.71h-1.43Z"/><path class="cls-1" d="M256,51.56l-.11-1h0a2.92,2.92,0,0,1-2.4,1.17,2.23,2.23,0,0,1-2.39-2.05q0-.1,0-.2c0-1.9,1.68-2.93,4.71-2.91v-.16a1.62,1.62,0,0,0-1.8-1.82,3.9,3.9,0,0,0-2,.58l-.32-.94a4.86,4.86,0,0,1,2.57-.7c2.4,0,3,1.64,3,3.21v2.93a11,11,0,0,0,.13,1.88Zm-.21-4c-1.55,0-3.32.24-3.32,1.77a1.26,1.26,0,0,0,1.15,1.36h.19a2,2,0,0,0,1.9-1.31,1.49,1.49,0,0,0,.08-.45Z"/><path class="cls-1" d="M259.69,40.06h1.43v11.5h-1.43Z"/><path class="cls-1" d="M265.31,41.52a.88.88,0,0,1-1.76,0h0a.87.87,0,0,1,.85-.89h0a.85.85,0,0,1,.87.83S265.31,41.5,265.31,41.52Zm-1.59,10v-7.8h1.43v7.84Z"/><path class="cls-1" d="M267.53,50.1a3.74,3.74,0,0,0,1.88.57c1,0,1.52-.52,1.52-1.17s-.41-1.05-1.46-1.44c-1.41-.5-2.07-1.28-2.07-2.22a2.42,2.42,0,0,1,2.52-2.31h.18A3.9,3.9,0,0,1,272,44l-.36,1a3,3,0,0,0-1.6-.45c-.84,0-1.31.49-1.31,1.07s.47.94,1.49,1.33c1.36.52,2.06,1.2,2.06,2.36,0,1.38-1.07,2.35-2.93,2.35a4.47,4.47,0,0,1-2.2-.53Z"/><path class="cls-1" d="M274.35,45.84a19.88,19.88,0,0,0-.07-2.12h1.25l.06,1.26h0A2.71,2.71,0,0,1,278,43.54a2.32,2.32,0,0,1,2.22,1.57h0a3.24,3.24,0,0,1,.88-1,2.67,2.67,0,0,1,1.85-.57c1,0,2.57.68,2.57,3.4v4.62h-1.39V47.12c0-1.51-.55-2.41-1.7-2.41A1.84,1.84,0,0,0,280.8,46a2.32,2.32,0,0,0-.11.71v4.84H279.3v-4.7c0-1.25-.55-2.15-1.64-2.15a2.11,2.11,0,0,0-1.87,2.12v4.73H274.4Z"/></svg>